<?xml version="1.0" standalone="no"?>
<!DOCTYPE svg PUBLIC "-//W3C//DTD SVG 20010904//EN"
 "http://www.w3.org/TR/2001/REC-SVG-20010904/DTD/svg10.dtd">
<svg version="1.0" xmlns="http://www.w3.org/2000/svg"
 width="1248.000000pt" height="1248.000000pt" viewBox="0 0 1248.000000 1248.000000"
 preserveAspectRatio="xMidYMid meet">

<g transform="translate(0.000000,1248.000000) scale(0.100000,-0.100000)"
fill="#000000" stroke="none">
<path d="M5715 11100 c-38 -10 -82 -19 -97 -19 -27 -1 -156 -37 -233 -65 -56
-20 -192 -93 -244 -130 -24 -17 -51 -35 -60 -41 -9 -5 -34 -24 -56 -41 -71
-56 -4765 -4755 -4793 -4798 -14 -22 -36 -52 -48 -66 -60 -67 -128 -226 -140
-325 -9 -80 -13 -95 -29 -95 -13 0 -15 -22 -15 -129 0 -120 1 -129 20 -134 17
-4 20 -14 20 -72 0 -37 6 -79 13 -93 8 -15 37 -75 65 -133 36 -74 71 -128 113
-175 59 -66 493 -503 2096 -2109 706 -707 1056 -1054 1123 -1110 76 -64 167
-118 250 -145 36 -12 72 -24 80 -28 85 -34 457 -39 503 -7 12 8 32 15 46 15
21 0 89 27 131 51 8 5 31 17 50 27 133 66 197 128 2475 2407 1238 1238 2295
2297 2350 2355 97 101 194 222 229 285 9 17 30 53 46 80 15 28 29 62 29 76 2
47 19 52 123 35 51 -8 131 -24 178 -36 47 -12 121 -28 165 -36 44 -7 100 -19
125 -25 25 -6 97 -17 160 -25 63 -7 144 -17 180 -23 81 -13 716 -13 785 0 28
5 89 15 136 23 47 8 107 21 133 30 25 9 52 16 59 16 7 0 24 6 39 14 15 8 41
17 59 21 32 7 86 31 139 61 14 8 54 29 89 46 49 25 98 66 197 163 124 123 135
136 183 234 27 57 53 124 57 148 4 25 13 47 20 50 11 4 14 47 14 223 0 209 -1
218 -20 223 -15 4 -20 14 -20 41 0 49 -31 137 -101 285 -71 150 -171 304 -255
391 -34 36 -92 101 -128 144 -36 44 -111 119 -168 169 -57 49 -128 113 -158
142 -49 47 -157 132 -243 192 -18 12 -54 38 -82 57 -70 50 -184 126 -189 126
-2 0 -37 20 -78 45 -40 25 -91 54 -113 65 -22 11 -53 28 -70 38 -16 9 -61 35
-100 57 -38 21 -76 45 -83 52 -7 7 -20 13 -29 13 -8 0 -26 9 -40 20 -14 11
-34 20 -43 20 -10 0 -23 6 -29 14 -7 8 -23 17 -36 20 -13 3 -62 24 -107 45
-46 21 -94 42 -108 46 -14 4 -34 14 -45 21 -11 8 -26 14 -33 14 -8 0 -25 9
-39 20 -14 11 -34 20 -43 20 -10 0 -23 6 -29 14 -7 8 -35 19 -63 25 -27 6 -59
18 -71 26 -12 8 -28 15 -36 15 -8 0 -33 9 -55 19 -23 10 -52 22 -66 25 -55 13
-75 43 -81 120 -9 104 -44 234 -89 331 -11 22 -24 51 -30 65 -6 14 -19 39 -30
55 -11 17 -28 46 -39 65 -20 37 -162 185 -215 225 -17 13 -67 42 -111 66 -44
23 -82 46 -85 50 -3 4 -28 13 -55 19 -27 6 -54 15 -61 20 -11 10 -116 31 -244
49 -36 6 -441 13 -900 16 -502 4 -943 12 -1105 20 -148 8 -427 14 -620 14
-303 -1 -359 -4 -420 -19z m1912 -1420 c101 -11 151 -28 268 -88 74 -38 107
-64 185 -142 79 -80 103 -112 142 -191 67 -133 95 -268 98 -479 0 -9 28 -33
63 -53 34 -21 89 -56 122 -78 33 -21 70 -44 83 -49 13 -6 43 -24 67 -40 24
-17 47 -30 50 -30 4 0 20 -9 35 -20 16 -11 120 -66 232 -121 236 -117 260
-128 353 -165 39 -15 88 -35 110 -45 23 -10 54 -21 70 -25 16 -4 40 -13 54
-20 14 -8 31 -14 37 -14 7 0 31 -9 55 -20 24 -11 57 -20 73 -20 l29 0 -7 258
c-3 141 -10 363 -15 492 -5 129 -6 255 -2 280 9 69 32 66 209 -23 81 -41 165
-80 186 -87 47 -15 174 -81 234 -121 24 -16 46 -29 49 -29 40 0 616 -381 708
-468 22 -22 86 -78 142 -126 56 -47 121 -112 145 -143 24 -31 64 -80 90 -109
26 -30 57 -70 68 -91 11 -21 32 -56 45 -78 48 -78 66 -129 72 -208 l6 -78 -55
-52 c-58 -55 -74 -62 -228 -105 l-95 -27 -375 0 c-273 1 -386 4 -415 13 -22 7
-83 19 -135 27 -103 16 -244 45 -300 62 -35 11 -71 21 -185 50 -33 8 -74 21
-92 29 -17 8 -37 14 -45 14 -32 0 -340 108 -445 156 -17 8 -34 14 -39 14 -4 0
-40 16 -81 35 -41 19 -79 35 -85 35 -5 0 -27 9 -47 19 -20 10 -63 31 -96 46
-33 15 -69 32 -80 38 -11 6 -67 35 -125 65 -138 71 -212 112 -230 128 -8 6
-46 29 -85 49 -38 21 -86 49 -105 64 -19 14 -53 38 -75 52 -22 14 -62 42 -89
62 -26 21 -55 37 -65 37 -9 0 -41 -25 -71 -55 -30 -31 -66 -62 -80 -69 -192
-102 -198 -105 -287 -117 -103 -14 -283 -6 -370 17 -158 40 -326 157 -436 303
-37 48 -67 91 -67 95 0 4 -9 19 -20 33 -11 14 -20 37 -20 52 0 14 -8 40 -17
56 -33 59 -28 403 7 450 4 6 10 24 14 40 19 81 80 178 177 279 86 90 108 107
191 148 139 70 170 80 260 88 124 11 145 11 235 0z"/>
</g>
</svg>
