<svg width="100" height="100" viewBox="0 0 100 100" fill="none" xmlns="http://www.w3.org/2000/svg">
<g clip-path="url(#clip0_71_111)">
<path d="M100 50C100 22.4298 77.5693 0 50 0C45.3598 0 40.8863 0.683643 36.6196 1.87303L36.5199 1.8069C36.4967 1.84043 36.4799 1.87676 36.4566 1.91401C15.4565 7.83954 0 27.1268 0 50C0 77.5702 22.4298 100 50 100C54.643 100 59.1137 99.3164 63.3804 98.127L63.4801 98.1968C63.5033 98.1633 63.5238 98.127 63.5434 98.0897C84.5426 92.1595 100 72.8694 100 50ZM4.97644 52.43H22.9961C23.1759 57.8004 23.7757 63.0833 24.8626 68.2097H8.72343C6.56353 63.3366 5.27355 58.0165 4.97644 52.43ZM95.0226 47.5728H77.0067C76.8232 42.1996 76.2271 36.9158 75.1365 31.7894H91.2766C93.4365 36.6634 94.7265 41.9835 95.0226 47.5728ZM72.1532 47.5728H52.4263V31.7894H70.1796C71.3261 36.9065 71.9632 42.1903 72.1532 47.5728ZM52.43 26.9396V4.97644C54.7864 5.10311 57.1 5.36296 59.3503 5.83611C63.5434 12.3428 66.7735 19.4298 68.9334 26.9396H52.43ZM47.5728 26.9396H30.6959C32.6863 19.563 35.6826 12.5626 39.6094 6.10622C42.1856 5.49615 44.8457 5.12266 47.5728 4.97644V26.9396ZM47.5728 31.7903V47.5737H27.7928C27.8962 42.2033 28.4559 36.9167 29.5159 31.7903H47.5728ZM22.943 47.5728H4.97364C5.27076 41.9826 6.56074 36.6597 8.72064 31.7894H24.5972C23.5969 36.9335 23.0436 42.2098 22.943 47.5728ZM27.8468 52.43H47.5737V68.2097H29.8167C28.673 63.0926 28.0368 57.8097 27.8468 52.43ZM47.5728 73.0594V95.0226C45.2164 94.896 42.8991 94.6361 40.6525 94.163C36.4594 87.6562 33.2293 80.5693 31.0657 73.0594C31.0666 73.0594 47.5728 73.0594 47.5728 73.0594ZM52.43 73.0594H69.3031C67.3099 80.4361 64.3165 87.4327 60.3897 93.8929C57.8135 94.5066 55.1534 94.8764 52.4263 95.0226V73.0594H52.43ZM52.43 68.2097V52.43H72.21C72.1066 57.7967 71.5469 63.0833 70.4832 68.2097H52.43ZM77.0561 52.43H95.0264C94.7292 58.0202 93.4393 63.3404 91.2794 68.2097H75.4028C76.4031 63.0665 76.9564 57.7902 77.0561 52.43ZM88.7432 26.9396H73.9461C72.1364 20.283 69.5863 13.9066 66.2761 7.9364C75.7167 11.5996 83.6065 18.3429 88.7432 26.9396ZM32.8028 8.27357C29.7198 14.16 27.356 20.4199 25.699 26.9368H11.2568C16.2295 18.6195 23.7636 12.0131 32.8028 8.27357ZM11.2568 73.0594H26.0567C27.8636 79.7161 30.4137 86.0924 33.723 92.0627C24.2833 88.3995 16.3935 81.6562 11.2568 73.0594ZM67.1963 91.7264C70.2792 85.84 72.6431 79.5801 74.3001 73.0632H88.7432C83.7695 81.3796 76.2364 87.986 67.1963 91.7264Z" fill="#010002"/>
</g>
<defs>
<clipPath id="clip0_71_111">
<rect width="100" height="100" fill="white"/>
</clipPath>
</defs>
</svg>
